<svg xmlns="http://www.w3.org/2000/svg" viewBox="0 0 100 100" fill="none">
  <defs>
    <linearGradient id="favGradient" x1="0%" y1="0%" x2="100%" y2="100%">
      <stop offset="0%" style="stop-color:#8b5cf6"/>
      <stop offset="100%" style="stop-color:#7c3aed"/>
    </linearGradient>
  </defs>
  <!-- Background circle -->
  <rect width="100" height="100" rx="22" fill="#0a0a0f"/>
  <!-- Chat bubble -->
  <path d="M 20 25 L 80 25 Q 85 25 85 30 L 85 60 Q 85 65 80 65 L 40 65 L 25 80 L 30 65 L 20 65 Q 15 65 15 60 L 15 30 Q 15 25 20 25 Z" fill="url(#favGradient)"/>
  <!-- Sparkle dots -->
  <circle cx="35" cy="45" r="4" fill="#0a0a0f"/>
  <circle cx="50" cy="45" r="4" fill="#0a0a0f"/>
  <circle cx="65" cy="45" r="4" fill="#0a0a0f"/>
  <!-- Small sparkle -->
  <path d="M 75 20 L 77 25 L 82 27 L 77 29 L 75 34 L 73 29 L 68 27 L 73 25 Z" fill="#8b5cf6"/>
</svg>
